<svg xmlns="http://www.w3.org/2000/svg" viewBox="0 0 525.09 219.67"><defs><style>.cls-1{fill:#1d9cd7;}.cls-2{fill:#418fcd;}.cls-3{fill:#4c80c1;}.cls-4{fill:#586eb2;}.cls-5{fill:#5d5ca4;}.cls-6{fill:#5f4a96;}.cls-7{fill:#5b2b82;}.cls-8{fill:#5d2d80;fill-rule:evenodd;}.cls-9{fill:none;}</style></defs><title>space logo</title><g id="Layer_2" data-name="Layer 2"><g id="Layer_1-2" data-name="Layer 1"><path class="cls-1" d="M84.1,83.37c-.34.37-.66.72-1,1Q74,84.73,64.85,85t-18.29.29a28.56,28.56,0,0,0,1.25,7.82A20,20,0,0,0,51,99.45a14.27,14.27,0,0,0,5.37,4.24,18.68,18.68,0,0,0,7.93,1.53,19.1,19.1,0,0,0,5.32-.79q2.72-.8,5-1.7c1.55-.6,2.87-1.17,4-1.69a8,8,0,0,1,2-.8,1.69,1.69,0,0,1,1.87,1.48,14.34,14.34,0,0,1,.28,2.61V106l-.68,1.25a29.26,29.26,0,0,1-8.61,3.39,40.38,40.38,0,0,1-9.17,1.14,28.58,28.58,0,0,1-12-2.21,19.17,19.17,0,0,1-7.7-6.17A25.37,25.37,0,0,1,40.55,94,53,53,0,0,1,39.3,82.12a34.19,34.19,0,0,1,1.58-10.65,22.78,22.78,0,0,1,4.7-8.32,21.2,21.2,0,0,1,7.76-5.38A27.6,27.6,0,0,1,64,55.84,21.17,21.17,0,0,1,74,58a17.13,17.13,0,0,1,6.4,5.83,25.08,25.08,0,0,1,3.39,8.44,47.14,47.14,0,0,1,1,10A4.15,4.15,0,0,1,84.1,83.37ZM76.35,72.09a16.69,16.69,0,0,0-2.55-4.93,12.33,12.33,0,0,0-4.08-3.45A11.91,11.91,0,0,0,64,62.41,16.65,16.65,0,0,0,46.55,78.6h3.51q6.92,0,13.76-.11t13.65-.68A24.3,24.3,0,0,0,76.35,72.09Z"/><path class="cls-2" d="M138.48,110.38a5,5,0,0,1-1.19.74h-2.5l-.91-.46c-.22-.22-.45-.47-.68-.74a3.58,3.58,0,0,1-.57-1l-.11-5.55a22.79,22.79,0,0,1-7.42,6.12,20,20,0,0,1-9.34,2.26,25.84,25.84,0,0,1-10.82-2,19.07,19.07,0,0,1-7.31-5.67,23.25,23.25,0,0,1-4.13-8.6,42.87,42.87,0,0,1-1.3-10.87q0-14.16,6.74-21.36t21.13-7.19c2,0,4.07.05,6.12.17s4.08.24,6.11.4V27.41a5,5,0,0,1,2.15-2.15h2.83l.9.45a9.47,9.47,0,0,1,.68.74,3.5,3.5,0,0,1,.57,1v82A5.75,5.75,0,0,1,138.48,110.38ZM126.24,62.81c-2.08-.12-4.14-.17-6.18-.17q-10.88,0-15.8,5.77t-4.93,16.2a35,35,0,0,0,.85,7.81A19.15,19.15,0,0,0,103,99a14.2,14.2,0,0,0,5.1,4.54,16.44,16.44,0,0,0,7.82,1.7,14.5,14.5,0,0,0,8.32-2.2,15.18,15.18,0,0,0,5-5.84A28.26,28.26,0,0,0,131.79,89a66.78,66.78,0,0,0,.85-9.12c.08-3.06,0-6-.11-8.89s-.23-5.32-.23-7.36A34.54,34.54,0,0,0,126.24,62.81Z"/><path class="cls-3" d="M196.47,94.87a24.1,24.1,0,0,1-4.7,8.89,22.18,22.18,0,0,1-7.93,5.89,27,27,0,0,1-11.21,2.15,28.13,28.13,0,0,1-11.28-2.1,21.84,21.84,0,0,1-8-5.89,24.91,24.91,0,0,1-4.81-8.94,38.1,38.1,0,0,1-1.59-11.28A41.57,41.57,0,0,1,148.38,72,22.89,22.89,0,0,1,153,63.32a19.91,19.91,0,0,1,8-5.55,35.79,35.79,0,0,1,23.17,0A19.54,19.54,0,0,1,192,63.32,23.27,23.27,0,0,1,196.52,72,41.57,41.57,0,0,1,198,83.59,39.52,39.52,0,0,1,196.47,94.87Zm-6.63-20.73a15.63,15.63,0,0,0-3.05-6.29,14.12,14.12,0,0,0-5.61-4,22.67,22.67,0,0,0-8.55-1.41A20.57,20.57,0,0,0,164.14,64a14.85,14.85,0,0,0-5.72,4.42,19.08,19.08,0,0,0-3.29,6.74,33,33,0,0,0,0,16.71,19.31,19.31,0,0,0,3.4,6.91,17.15,17.15,0,0,0,5.78,4.7,17.89,17.89,0,0,0,8.21,1.76,18.2,18.2,0,0,0,8.62-1.87,15.27,15.27,0,0,0,5.6-5,21.8,21.8,0,0,0,3.06-7.25,38.41,38.41,0,0,0,1-8.66A35,35,0,0,0,189.84,74.13Z"/><path class="cls-4" d="M254.46,94.87a24.09,24.09,0,0,1-4.7,8.89,22.17,22.17,0,0,1-7.93,5.89,27,27,0,0,1-11.21,2.15,28.13,28.13,0,0,1-11.28-2.1,21.84,21.84,0,0,1-8-5.89,24.91,24.91,0,0,1-4.81-8.94,38.09,38.09,0,0,1-1.59-11.28A41.57,41.57,0,0,1,206.37,72,22.9,22.9,0,0,1,211,63.32a19.91,19.91,0,0,1,8-5.55,35.79,35.79,0,0,1,23.17,0A19.54,19.54,0,0,1,250,63.32,23.37,23.37,0,0,1,254.51,72,41.58,41.58,0,0,1,256,83.59,39.52,39.52,0,0,1,254.46,94.87Zm-6.63-20.73a15.63,15.63,0,0,0-3.05-6.29,14.13,14.13,0,0,0-5.61-4,22.67,22.67,0,0,0-8.55-1.41,20.59,20.59,0,0,0-8.5,1.59,14.86,14.86,0,0,0-5.72,4.42,19.08,19.08,0,0,0-3.29,6.74,33,33,0,0,0,0,16.71,19.31,19.31,0,0,0,3.4,6.91,17.17,17.17,0,0,0,5.78,4.7,17.91,17.91,0,0,0,8.21,1.76,18.21,18.21,0,0,0,8.62-1.87,15.27,15.27,0,0,0,5.6-5,21.79,21.79,0,0,0,3.06-7.25,38.41,38.41,0,0,0,1-8.66A35,35,0,0,0,247.83,74.13Z"/><path class="cls-5" d="M303.62,110.44a2.29,2.29,0,0,1-1.54.68h-4.42L270.82,85.29V109a4,4,0,0,1-.9,1.25,4.13,4.13,0,0,1-1.25.91H265.5L264.14,110l-.57-1V27.29a3.12,3.12,0,0,1,.91-1.3,3.82,3.82,0,0,1,1.36-.85h2.72a3.94,3.94,0,0,1,1.25.9,4.09,4.09,0,0,1,.9,1.25V74.64q5.78-4.75,11.33-9.46t11.32-9.45h4.3a2,2,0,0,1,1.65.74,2.63,2.63,0,0,1,.62,1.75l-.57,1-25,20.27c.53.53,1.66,1.59,3.4,3.17s3.7,3.42,5.89,5.5,4.52,4.29,7,6.63,4.71,4.52,6.74,6.51,3.72,3.72,5,5.16a10.08,10.08,0,0,1,2,2.49A2,2,0,0,1,303.62,110.44Z"/><path class="cls-6" d="M318.4,46.33l-.9.34h-4.31l-.9-.34-.91-.8-.46-.9v-4.3a3.69,3.69,0,0,1,.57-1c.23-.26.46-.51.68-.74l.91-.45h4.31a3.91,3.91,0,0,1,1.36.85,3.14,3.14,0,0,1,.91,1.31v4.3A3.06,3.06,0,0,1,318.4,46.33Zm-.45,64.05a4.14,4.14,0,0,1-1.14.74h-3.28L312.16,110l-.57-1V58.78A3.87,3.87,0,0,1,313,57l.79-.34h3l.79.34a3.78,3.78,0,0,1,1.36,1.81v50.63A6.62,6.62,0,0,1,317.95,110.38Z"/><path class="cls-7" d="M363.6,107.15l-.68,1.25a19.47,19.47,0,0,1-6.12,2.55,28.26,28.26,0,0,1-6.68.85,17.4,17.4,0,0,1-7.25-1.3,10.94,10.94,0,0,1-4.47-3.62,14.05,14.05,0,0,1-2.27-5.55,38.54,38.54,0,0,1-.62-7.19V65h-6.69l-1.36-1.13-.45-1v-2.5l.34-.79a3.79,3.79,0,0,1,1.81-1.36h6.35c.15-2.42.22-4.84.22-7.25s0-4.95.12-7.37a5.47,5.47,0,0,1,1-1,4.48,4.48,0,0,1,1.19-.74h2.61L342,43l.57,1V58.22H360.2a4.1,4.1,0,0,1,1.08,1,4.82,4.82,0,0,1,.74,1.18v2.5a4.08,4.08,0,0,1-.91,1.25,3.91,3.91,0,0,1-1.25.91H342.53V94.13a27,27,0,0,0,.28,3.85,11.26,11.26,0,0,0,1.14,3.57,7.26,7.26,0,0,0,2.32,2.66,6.44,6.44,0,0,0,3.74,1,11.65,11.65,0,0,0,3.68-.62q1.87-.63,3.45-1.3c1.06-.46,2-.89,2.78-1.3a4.47,4.47,0,0,1,1.64-.62,1.67,1.67,0,0,1,1.76,1,4.33,4.33,0,0,1,.29,2Z"/><path class="cls-8" d="M419.1,104h-.52a31.2,31.2,0,0,1-8.7,7.55l.11.26a101.68,101.68,0,0,1,22.39-.12l.07-.25C427.65,109.81,421.62,106.73,419.1,104Zm63.06-27.86c0-.32,2.07-10.23,2.06-14.06,0-9.11.1-17.67-5.7-24.81-7.63-9.4-21.35-15.62-42.37-9.92s-29.72,18-31.57,30c-1.4,9.09,5.49,18.51,5.53,18.83a10.27,10.27,0,0,0,4.23,17.82l.06.24c.3.71,7.65,16.3,31.73,16.3s31.42-15.59,31.73-16.3l0-.24a10.27,10.27,0,0,0,4.25-17.82Zm-7.08-12a34,34,0,0,1-5.92,7.68,50.73,50.73,0,0,1-18.25,10.06,50.7,50.7,0,0,1-20.82.53,34.13,34.13,0,0,1-9-3.64c-6.41-4.3-10-15-8.51-23.75A21.16,21.16,0,0,1,418,44.76c4.35-4.39,12.39-6.17,17.72-5.1,1.16.24,4.13,1.25,4.13,1.25s2.06-2.38,2.94-3.17c4.06-3.62,11.91-6.14,17.87-4.55a21.18,21.18,0,0,1,9.79,6.08C476.16,46.1,478.45,57.12,475.09,64.07ZM454.44,53.18c-4,4.13-6.24,10.78-7,15.95-3.23-4.1-8.51-8.71-14.06-10.26-5.71-1.58-13.76,2.49-14.5,8.23,1.89,1.55,8.21,3.06,13,1.51,3-1,4.57-3.28,6.44-5.15a55.29,55.29,0,0,1,10.83,12,55.42,55.42,0,0,1,3.3-15.81c2.55.66,5,1.87,8.16,1.19,4.91-1.08,9.6-5.57,10.45-7.87C467.58,48.38,458.57,48.92,454.44,53.18ZM473.69,104h-.52c-2.51,2.76-8.55,5.85-13.35,7.43l.07.25a101.68,101.68,0,0,1,22.39.12l.11-.26A31.36,31.36,0,0,1,473.69,104Z"/><path class="cls-7" d="M367.56,175.42a6.89,6.89,0,0,1-2.31,2.37,10.59,10.59,0,0,1-3.24,1.32,15.83,15.83,0,0,1-3.6.42,22.74,22.74,0,0,1-4-.36,19.35,19.35,0,0,1-3.84-1.08l-.48-.72v-2.1a1.06,1.06,0,0,1,.36-.81,1.21,1.21,0,0,1,.84-.33,3.22,3.22,0,0,1,1.14.3c.48.2,1,.42,1.68.66s1.33.46,2.07.66a8.79,8.79,0,0,0,2.31.3,11,11,0,0,0,2.1-.21,6.5,6.5,0,0,0,2-.72,4.32,4.32,0,0,0,1.47-1.35,3.54,3.54,0,0,0,.57-2,3.47,3.47,0,0,0-1.08-2.64,11.4,11.4,0,0,0-2.67-1.83q-1.59-.81-3.48-1.56a16.9,16.9,0,0,1-3.48-1.86,10,10,0,0,1-2.67-2.76,7.46,7.46,0,0,1-1.08-4.17,6.45,6.45,0,0,1,.75-3.24,6.31,6.31,0,0,1,2-2.16,8.92,8.92,0,0,1,2.88-1.23,14.06,14.06,0,0,1,3.3-.39,27.83,27.83,0,0,1,7.68,1.08l.36.48a2.37,2.37,0,0,1,.3.54v1.68a1.33,1.33,0,0,1-.27.75.81.81,0,0,1-.69.39,7.86,7.86,0,0,1-1.8-.21c-.6-.14-1.21-.3-1.83-.48l-1.86-.51a7.59,7.59,0,0,0-1.89-.24,11.16,11.16,0,0,0-1.77.15,5.07,5.07,0,0,0-1.68.57,3.77,3.77,0,0,0-1.23,1.08,2.89,2.89,0,0,0-.48,1.74,3.63,3.63,0,0,0,1.08,2.73,10.88,10.88,0,0,0,2.67,1.86q1.59.81,3.48,1.56a17,17,0,0,1,3.48,1.86,10,10,0,0,1,2.67,2.76,7.47,7.47,0,0,1,1.08,4.17A6.89,6.89,0,0,1,367.56,175.42Z"/><path class="cls-7" d="M396.93,169.18a16.62,16.62,0,0,1-2.94,5.28,14.46,14.46,0,0,1-4.65,3.69,13.43,13.43,0,0,1-6.15,1.38,27.87,27.87,0,0,1-2.88-.15,25.72,25.72,0,0,1-2.82-.45v12.6l-.24.48a1.82,1.82,0,0,1-1,.66h-1.5a1.57,1.57,0,0,1-.66-.45,1.91,1.91,0,0,1-.42-.69V151.45a1.82,1.82,0,0,1,.66-1l.42-.18h1.5l.48.18a2,2,0,0,1,.72,1v1.86a11.68,11.68,0,0,1,3.75-2.52,11.22,11.22,0,0,1,4.41-.9q6.3,0,9.3,3.51t3,9.57A19,19,0,0,1,396.93,169.18Zm-3.24-10.08a8.16,8.16,0,0,0-1.5-3,7,7,0,0,0-2.64-2,9.57,9.57,0,0,0-3.9-.72,7.45,7.45,0,0,0-3.48.78,8,8,0,0,0-2.55,2.07,8.6,8.6,0,0,0-1.56,3,11.89,11.89,0,0,0-.51,3.48v12.66a14.91,14.91,0,0,0,2.79.57,26.9,26.9,0,0,0,2.85.15,9.75,9.75,0,0,0,4.74-1.11,10.72,10.72,0,0,0,3.45-3,13,13,0,0,0,2.1-4.2,16.92,16.92,0,0,0,.69-4.8A14.79,14.79,0,0,0,393.69,159.1Z"/><path class="cls-7" d="M424.41,178.72a2,2,0,0,1-.72.45h-1.26l-.48-.24c-.12-.12-.24-.25-.36-.39a1.77,1.77,0,0,1-.3-.51l-.06-2.94a10.8,10.8,0,0,1-8.88,4.44,9.71,9.71,0,0,1-3.63-.66,8.94,8.94,0,0,1-2.88-1.83,7.81,7.81,0,0,1-1.89-2.85,9.91,9.91,0,0,1-.66-3.66,8.81,8.81,0,0,1,.84-4.08,7.71,7.71,0,0,1,2.25-2.67,10.21,10.21,0,0,1,3.24-1.59,21.48,21.48,0,0,1,3.81-.75q2-.21,4-.24l3.72,0v-2.4q0-3.12-1.65-4.2a8.2,8.2,0,0,0-4.53-1.08,9.9,9.9,0,0,0-2.91.45,21.07,21.07,0,0,0-2.7,1q-1.23.57-2.1,1a4.06,4.06,0,0,1-1,.45.9.9,0,0,1-1-.81,7.83,7.83,0,0,1-.15-1.41v-.9l.36-.72q2.1-.78,3.6-1.29t3.12-.9a12.12,12.12,0,0,1,2.76-.39,20.91,20.91,0,0,1,4.26.39,7.7,7.7,0,0,1,3.15,1.38,6.07,6.07,0,0,1,2,2.7,12,12,0,0,1,.66,4.29V178A1.67,1.67,0,0,1,424.41,178.72Zm-5.31-14.46a5.42,5.42,0,0,0-2.19.15,4.11,4.11,0,0,1-1.17.09,9.25,9.25,0,0,0-1.29,0,14.07,14.07,0,0,0-2.64.48,7.93,7.93,0,0,0-2.28,1.05,5.08,5.08,0,0,0-1.62,1.77,5.51,5.51,0,0,0-.6,2.7,6,6,0,0,0,.36,2.07,5.37,5.37,0,0,0,1,1.74,5.49,5.49,0,0,0,1.56,1.23,4.25,4.25,0,0,0,2,.48,8.16,8.16,0,0,0,4.2-1,7.58,7.58,0,0,0,2.67-2.61,11.35,11.35,0,0,0,1.41-3.63,20.08,20.08,0,0,0,.42-4.11l.3-.6A5.37,5.37,0,0,1,419.1,164.26Z"/><path class="cls-7" d="M453.45,176.47l-.3.66a17.16,17.16,0,0,1-4.71,1.8,22.39,22.39,0,0,1-5,.6,14.61,14.61,0,0,1-6.18-1.17,10.57,10.57,0,0,1-4.08-3.24,13.22,13.22,0,0,1-2.25-4.89,25.66,25.66,0,0,1-.69-6.12,19.51,19.51,0,0,1,.81-5.79,12.26,12.26,0,0,1,2.46-4.5,10.9,10.9,0,0,1,4.11-2.91,15.14,15.14,0,0,1,5.82-1,28.24,28.24,0,0,1,4.47.36,19.2,19.2,0,0,1,4.29,1.2l.48.72v2a1.16,1.16,0,0,1-.3.81,1,1,0,0,1-.78.33,5.21,5.21,0,0,1-1.53-.3l-2-.66q-1.11-.36-2.28-.66a9.29,9.29,0,0,0-2.31-.3,9.8,9.8,0,0,0-4.23.84,8.33,8.33,0,0,0-2.94,2.28,9.2,9.2,0,0,0-1.71,3.39,15.83,15.83,0,0,0-.54,4.23,20.32,20.32,0,0,0,.48,4.44,10.71,10.71,0,0,0,1.62,3.81A8.85,8.85,0,0,0,439,175a8.71,8.71,0,0,0,4.41,1,10.35,10.35,0,0,0,2.85-.42q1.47-.42,2.79-.9t2.25-.9a4.06,4.06,0,0,1,1.23-.42,1.34,1.34,0,0,1,.75.84,4.26,4.26,0,0,1,.15,1.14Z"/><path class="cls-7" d="M482.7,164.47l-.51.54q-4.86.18-9.69.33t-9.69.15a15.15,15.15,0,0,0,.66,4.14,10.6,10.6,0,0,0,1.71,3.36,7.55,7.55,0,0,0,2.85,2.25,9.89,9.89,0,0,0,4.2.81,10,10,0,0,0,2.82-.42q1.44-.42,2.67-.9t2.1-.9a4.22,4.22,0,0,1,1.05-.42.89.89,0,0,1,1,.78,7.45,7.45,0,0,1,.15,1.38v.9l-.36.66a15.47,15.47,0,0,1-4.56,1.8,21.53,21.53,0,0,1-4.86.6,15.16,15.16,0,0,1-6.33-1.17,10.17,10.17,0,0,1-4.08-3.27,13.45,13.45,0,0,1-2.19-5,28.12,28.12,0,0,1-.66-6.3,18.11,18.11,0,0,1,.84-5.64,12.05,12.05,0,0,1,2.49-4.41,11.23,11.23,0,0,1,4.11-2.85,14.63,14.63,0,0,1,5.64-1,11.17,11.17,0,0,1,5.31,1.14,9,9,0,0,1,3.39,3.09,13.3,13.3,0,0,1,1.8,4.47,25.19,25.19,0,0,1,.54,5.28A2,2,0,0,1,482.7,164.47Zm-4.11-6a8.74,8.74,0,0,0-1.35-2.61,6.59,6.59,0,0,0-2.16-1.83,6.34,6.34,0,0,0-3-.69,8.82,8.82,0,0,0-9.24,8.58h1.86q3.66,0,7.29-.06t7.23-.36A13,13,0,0,0,478.59,158.5Z"/><rect class="cls-9" width="525.09" height="219.67"/></g></g></svg>