<svg height="256" fill="#FFF" viewBox="0 0 256 256" width="256" xmlns="http://www.w3.org/2000/svg"><path d="M185.066 128c0 3.534-2.866 6-6.4 6H134v44.666c0 3.534-2.467 6.4-6 6.4-3.534 0-6-2.866-6-6.4V134H77.332c-3.535 0-6.4-2.466-6.4-6s2.866-6 6.4-6H122V77.33c0-3.533 2.466-6.4 6-6.4 3.533 0 6 2.867 6 6.4V122h44.666c3.534 0 6.4 2.466 6.4 6zM256 128C256 57.42 198.58 0 128 0S0 57.42 0 128s57.42 128 128 128 128-57.42 128-128zm-12.8 0c0 63.52-51.68 115.2-115.2 115.2-63.522 0-115.2-51.68-115.2-115.2C12.8 64.478 64.478 12.8 128 12.8c63.52 0 115.2 51.678 115.2 115.2z"/></svg>
