<svg xmlns="http://www.w3.org/2000/svg" width="14" height="16" viewBox="0 0 14 16"><g fill="#FFF" fill-rule="nonzero"><path d="M10.472 11.543c-.112 0-.28 0-.336-.114L1.792 8.97C.784 8.686.168 7.77.168 6.8V4.97c0-1.027.616-1.94 1.624-2.17L10.136.343c.784-.286 1.68.457 1.68 1.257v8.514c0 .343-.168.743-.336 1.03-.28.285-.616.4-1.008.4zm0-10.343h-.112L2.016 3.657c-.56.172-1.008.743-1.008 1.257v1.83c0 .627.336 1.2 1.008 1.256l8.344 2.457c.168 0 .336 0 .448-.114.112-.114.112-.172.112-.343V1.486c0-.115-.168-.286-.448-.286z"/><path d="M11.144 3.143c.112-.114.28-.114.448 0l1.792.914c.168.114.28.286.28.343v2.743c0 .17-.112.343-.28.343l-1.792.914c-.112 0-.112.114-.168.114-.056 0-.168 0-.28-.114V3.143zm.672 1.086v3.084l.896-.457v-2.17l-.896-.458zm-8.68 4.456l1.512 6.4c.112.285-.112.457-.336.57H4.2c-.168 0-.336-.17-.448-.342l-1.512-6.4.896-.228z"/></g></svg>
