<svg xmlns="http://www.w3.org/2000/svg" width="19" height="19" viewBox="0 0 19 19"><g fill="#377FEA" fill-rule="nonzero"><path d="M9.85 13.538c-.38 0-.606-.227-.606-.605v-3.63c0-.38.227-.606.605-.606s.604.227.604.606v3.63a.597.597 0 0 1-.605.605zm0-7.26c-.153 0-.38-.152-.455-.152-.15-.15-.15-.227-.15-.454 0-.15 0-.378.15-.454a.594.594 0 0 1 .832 0c.15.15.227.227.227.454 0 .15-.15.378-.15.378-.153.076-.38.227-.455.227z"/><path d="M16.202 18.38H3.495c-1.437 0-2.798-1.21-2.798-2.8V3.025c0-1.437 1.21-2.8 2.798-2.8h12.707c1.437 0 2.8 1.21 2.8 2.8v12.707a2.816 2.816 0 0 1-2.8 2.647zM3.495 1.435c-.832 0-1.588.757-1.588 1.59V15.73c0 .832.756 1.588 1.588 1.588h12.707c.832 0 1.59-.756 1.59-1.588V3.025c0-.832-.758-1.59-1.59-1.59H3.495z"/></g></svg>
