<svg xmlns="http://www.w3.org/2000/svg" width="19" height="19" viewBox="0 0 19 19">
  <path fill="#377FEA" fill-rule="nonzero" d="M13.388 18.59c-.946 0-1.96-.333-2.703-.867C8.388 16.12 6.9 14.717 5.617 13.45a40.696 40.696 0 0 1-4.324-5.01C-.33 6.303.347 3.5 2.78.96c.743-.735 2.027-.735 2.837 0l1.487 1.47c.338.333.54.867.54 1.402 0 .534-.202 1.068-.54 1.402l-.676.668c-.202.2-.135.534 0 .735.744.935 2.027 2.337 2.838 3.005.744.735 2.027 2.003 3.04 2.805.204.2.54.2.744 0l.676-.668c.743-.736 2.027-.736 2.838 0l1.486 1.47c.338.332.54.866.54 1.4 0 .535-.202 1.07-.54 1.403-1.42 1.67-3.04 2.538-4.662 2.538zM4.198 1.495c-.202 0-.405.134-.675.2C1.36 3.833.955 6.103 2.103 7.773c1.623 2.27 2.906 3.606 4.19 4.942 1.284 1.27 2.703 2.538 5 4.14 1.757 1.203 3.987.735 6.15-1.402.202-.2.202-.4.202-.668 0-.2-.135-.4-.203-.668l-1.62-1.47c-.34-.333-.947-.333-1.285 0l-.676.67c-.54.533-1.418.533-2.16 0-1.082-.736-2.366-2.138-3.11-2.873-.743-.734-2.162-2.137-2.905-3.072-.54-.734-.54-1.603 0-2.137l.676-.668c.203-.2.203-.4.203-.667 0-.268-.135-.4-.202-.668L4.875 1.76c-.202-.133-.473-.267-.675-.267z"/>
</svg>
