<svg xmlns="http://www.w3.org/2000/svg" width="16" height="16" viewBox="0 0 16 16"><g><path d="M8.17 15.714C3.887 15.714.4 12.23.4 7.944S3.886.17 8.17.17c4.287 0 7.773 3.486 7.773 7.772a7.743 7.743 0 0 1-7.772 7.77zm0-14.628c-3.77 0-6.856 3.085-6.856 6.857 0 3.77 3.086 6.857 6.857 6.857 3.773 0 6.86-3.086 6.86-6.857 0-3.772-3.087-6.857-6.86-6.857z"/><path d="M10.457 8.4h-4.57c-.287 0-.458-.17-.458-.457 0-.286.17-.457.456-.457h4.57c.287 0 .458.17.458.457 0 .286-.17.457-.457.457z"/><path d="M8.17 10.686c-.284 0-.456-.172-.456-.457V5.656c0-.286.172-.457.457-.457.287 0 .46.17.46.457v4.572c0 .284-.173.456-.46.456z"/></g></svg>
