
<svg xmlns="http://www.w3.org/2000/svg" xmlns:xlink="http://www.w3.org/1999/xlink" width="24" height="20" viewBox="0 0 24 20"><g fill="none" fill-rule="evenodd"><g transform="translate(-12 -14)"><use fill="#FAFAFA" xlink:href="#a"/>
<path stroke="#DDD" d="M70.5.5v47H5.992A5.496 5.496 0 0 1 .5 41.994V6.006C.5 2.966 2.96.5 5.992.5H70.5z"/></g><path fill="#377FEA" fill-rule="nonzero" d="M14.522.32a.503.503 0 0 0-.073.007H1.88A1.53 1.53 0 0 0 .364 1.855v16.29a1.53 1.53 0 0 0 1.517 1.528h12.565c.054.01.11.01.165 0h7.51a1.53 1.53 0 0 0 1.516-1.528V1.855A1.53 1.53 0 0 0 22.12.327h-7.51a.503.503 0 0 0-.087-.007zM1.882 1.345h12.142v17.31H1.88a.5.5 0 0 1-.506-.51V1.855a.5.5 0 0 1 .506-.51zm13.154 0h7.083a.5.5 0 0 1 .505.51v16.29a.5.5 0 0 1-.506.51h-7.084V1.345zM6.393 6.94a.505.505 0 0 0-.347.157L3.194 10l2.852 2.903a.504.504 0 0 0 .856-.22.51.51 0 0 0-.136-.495l-1.65-1.68h6.35a.505.505 0 0 0 .444-.25.512.512 0 0 0 0-.515.505.505 0 0 0-.445-.252H5.117l1.65-1.677a.51.51 0 0 0 .11-.565.506.506 0 0 0-.484-.308z"/></g>
</svg>
