<svg xmlns="http://www.w3.org/2000/svg" xmlns:xlink="http://www.w3.org/1999/xlink" width="30" height="39" viewBox="0 0 30 39"><defs><rect id="a" width="220" height="48" rx="6"/></defs><g fill="none" fill-rule="evenodd"><g fill="#DF6065"><path d="M6 0C2.692 0 0 2.692 0 6v27c0 3.307 2.692 6 6 6h18c3.308 0 6-2.693 6-6V12c0-1.593-1.46-3.105-4.078-5.672-.366-.36-.756-.753-1.125-1.125-.372-.37-.765-.712-1.125-1.078C21.104 1.505 19.594 0 18 0H6zm0 3h10.922C18.002 3.276 18 4.576 18 5.906V10.5c0 .826.674 1.5 1.5 1.5H24c1.497 0 3 .008 3 1.5V33c0 1.656-1.344 3-3 3H6c-1.656 0-3-1.344-3-3V6c0-1.656 1.344-3 3-3z"/><text font-family="SourceSansPro-Bold, Source Sans Pro" font-size="10" font-weight="bold"><tspan x="6" y="26">PDF</tspan></text></g></g></svg>
