<svg xmlns="http://www.w3.org/2000/svg" width="16" height="20" viewBox="0 0 16 20"><g fill="#377FEA" fill-rule="nonzero"><path d="M12.27 19.117H3.33c-1.536 0-2.793-1.216-2.793-2.7V3.448c0-1.486 1.257-2.7 2.793-2.7h4.05c.42 0 .908.2 1.257.403l6.006 5.808c.35.34.42.744.42 1.217v8.24c0 1.484-1.188 2.7-2.794 2.7zM3.33 1.83c-.908 0-1.676.74-1.676 1.62v12.966c0 .878.768 1.62 1.676 1.62h8.94c.907 0 1.675-.742 1.675-1.62v-8.24c0-.134-.14-.337-.14-.405L7.8 1.965c-.14-.135-.21-.135-.42-.135H3.33z"/><path d="M8.36 1.288V5.61c0 .878.767 1.62 1.675 1.62h4.47v1.08h-4.47c-1.536 0-2.793-1.214-2.793-2.7V1.288H8.36zm2.792 15.128H4.448c-.35 0-.558-.203-.558-.54 0-.338.21-.54.558-.54h6.704c.35 0 .56.202.56.54 0 .337-.21.54-.56.54zm0-2.702H4.448c-.35 0-.558-.202-.558-.54s.21-.54.558-.54h6.704c.35 0 .56.202.56.54s-.21.54-.56.54zm0-2.7H4.448c-.35 0-.558-.204-.558-.54 0-.34.21-.54.558-.54h6.704c.35 0 .56.2.56.54 0 .336-.21.54-.56.54z"/></g></svg>
