<svg xmlns="http://www.w3.org/2000/svg" xmlns:xlink="http://www.w3.org/1999/xlink" width="23" height="17" viewBox="0 0 23 17"><g transform="translate(-14 -15)" fill-rule="evenodd"><g fill-rule="nonzero" mask="url(#b)"><path d="M34.602 31.616c-.418 0-.668-.17-.92-.422l-1.335-1.1H24.58c-1.752 0-3.172-1.52-3.172-3.212V23.5c0-1.775 1.503-3.213 3.173-3.213h8.435c1.754 0 3.173 1.522 3.173 3.213v6.595c-.167.845-.835 1.52-1.586 1.52zm-10.02-9.89c-1.086 0-1.838.844-1.838 1.86v3.38c0 1.1.835 1.86 1.837 1.86H32.6c.167 0 .25 0 .417.17l1.587 1.352s.167 0 .167-.17v-6.763c0-1.1-.836-1.86-1.838-1.86h-8.267v.17h-.084z"/><path d="M25.333 26.036c-.167 0-.418 0-.5-.17-.168-.168-.168-.252-.168-.506 0-.17 0-.423.167-.423a.65.65 0 0 1 .92 0c.166.17.166.254.166.423 0 .17 0 .423-.167.507 0 0-.25.17-.417.17zm3.34 0c-.167 0-.417 0-.5-.17-.168-.168-.25-.252-.25-.506 0-.17.166-.423.25-.423a.65.65 0 0 1 .918 0c.168.17.168.254.168.423 0 .17-.167.423-.167.507 0 0-.25.17-.417.17zm3.34 0c-.167 0-.417 0-.5-.17-.168-.168-.25-.252-.25-.506 0-.17.166-.423.25-.423a.65.65 0 0 1 .918 0c.168.17.25.254.25.508 0 .17-.166.422-.166.507-.083-.085-.334.084-.5.084zM25.333 21.048c-.167 0-.418 0-.418-.17-.167-.168-.25-.253-.25-.506 0-.17.167-.423.25-.507a.65.65 0 0 1 .92 0c.166.17.25.253.25.507 0 .17-.167.423-.25.507-.168 0-.335.17-.502.17zm-3.34 0c-.167 0-.418 0-.5-.17-.168-.253-.168-.422-.168-.506 0-.17 0-.423.167-.507a.65.65 0 0 1 .918 0c.167.17.25.253.25.507 0 .17-.166.423-.25.507 0 0-.25.17-.417.17zm-3.34 0c-.167 0-.418 0-.5-.17-.168-.168-.168-.253-.168-.506 0-.17 0-.423.167-.507a.65.65 0 0 1 .918 0c.167.17.25.253.25.507 0 .17-.166.423-.25.507 0 0-.25.17-.417.17z"/><path d="M21.993 25.106h-3.59l-1.337 1.1c-.25.253-.668.422-.918.422s-.418 0-.668-.17c-.5-.253-.92-.844-.92-1.352v-6.68c0-1.774 1.504-3.21 3.174-3.21h8.434c1.754 0 3.173 1.52 3.173 3.21v2.453h-1.335v-2.453c0-1.1-.835-1.86-1.837-1.86h-8.434c-1.085 0-1.837.846-1.837 1.86v6.595c0 .17 0 .17.167.17h.167l1.504-1.354c.167-.17.25-.17.418-.17h3.84v1.438z"/></g></g></svg>
