<svg height="128" viewBox="0 0 128 128" width="128" xmlns="http://www.w3.org/2000/svg"><path d="M74.508 108.24c-.772 0-1.48-.446-1.81-1.15L55.835 71.25 20.732 55.117c-.734-.337-1.193-1.083-1.164-1.89.03-.81.543-1.52 1.3-1.8l83.312-31.108c.73-.27 1.552-.096 2.105.452.555.548.74 1.37.475 2.102L76.39 106.92c-.275.76-.98 1.28-1.79 1.317l-.092.002zM26.772 53.49l31.396 14.432c.43.197.774.54.975.965l15.122 32.14 27.264-75.45L26.77 53.49z"/><path d="M57.334 71.738c-.512 0-1.023-.195-1.414-.586-.78-.78-.78-2.047 0-2.828l47.545-47.546c.78-.78 2.047-.78 2.828 0 .78.78.78 2.047 0 2.828L58.748 71.152c-.39.39-.902.586-1.414.586z"/></svg>