<svg xmlns="http://www.w3.org/2000/svg" width="16" height="12" viewBox="0 0 16 12"><g fill="#FFF" fill-rule="nonzero"><path d="M12.86 11.76H2.784c-1.422 0-2.548-1.14-2.548-2.58V2.76c0-1.44 1.127-2.58 2.55-2.58H12.92c1.422 0 2.548 1.14 2.548 2.58v6.42c0 1.38-1.186 2.58-2.608 2.58zM2.843 1.2c-.83 0-1.6.78-1.6 1.62v6.42c0 .84.77 1.62 1.6 1.62h10.134c.83 0 1.6-.78 1.6-1.62V2.82c0-.84-.77-1.62-1.6-1.62H2.844z"/><path d="M15.23 3.48L9.363 6.96c-.356.3-.948.36-1.54.36-.593 0-1.067-.12-1.542-.36L.416 3.48l.474-.84 5.866 3.48c.592.3 1.54.3 2.014 0l5.867-3.48.593.84z"/><path d="M1.305 10.922L.53 10.29l4.136-5.067.775.632zm13.09.04L10.31 5.96l.775-.633 4.085 5.003z"/></g></svg>
