<svg width="25" viewBox="0 0 25 26" height="26" xmlns="http://www.w3.org/2000/svg"><title>background</title><path fill="none" d="M-1-1h27v28H-1z"/><g><title>Layer 1</title><path fill="#FFF" d="M22 17.544c1.758-.773 3-2.504 3-4.544s-1.243-3.768-3-4.54V2c0-1.158-.63-2-1.5-2S19 .842 19 2v.22C17.24 4.226 13.35 8 9 8H4c-2.21 0-4 1.79-4 4v2s1.79 4 4 4h.793l1.105 6.27c.17.97 1.02 1.654 1.97 1.654.115 0 .23-.01.347-.03 1.084-.19 1.813-1.233 1.623-2.316L8.854 18H9c4.4 0 8.253 3.757 10 5.765V24c0 1.158.63 2 1.5 2s1.5-.842 1.5-2v-6.456zM8.853 23.75c.046.262-.014.526-.167.746-.154.22-.383.367-.644.412-.058.01-.116.016-.173.016-.48 0-.904-.355-.987-.827L5.808 18h2.03l1.015 5.75zM9 17H4c-1.627 0-3-1.843-3-3v-2c0-1.654 1.346-3 3-3h5c4.194 0 7.9-3.098 10-5.29v18.56C16.915 20.076 13.235 17 9 17zm12 7c0 .55-.225 1-.5 1s-.5-.45-.5-1V2c0-.55.225-1 .5-1s.5.45.5 1v22zm3-11c0 1.48-.806 2.766-2 3.457v-6.91c1.193.69 2 1.974 2 3.453z"/></g></svg>
