<svg xmlns="http://www.w3.org/2000/svg" xmlns:xlink="http://www.w3.org/1999/xlink" width="16" height="16" viewBox="0 0 16 16"><g fill="none" fill-rule="evenodd"><g transform="translate(-288 -9)"><rect width="316" height="33" x=".5" y=".5" stroke="#DDD" rx="6"/></g><g fill="#377FEA" fill-rule="nonzero"><path d="M7.872 10.304c-.128 0-.32 0-.384-.128L4.416 7.104a.502.502 0 0 1 0-.704.502.502 0 0 1 .704 0l2.688 2.688L10.496 6.4a.502.502 0 0 1 .704 0 .502.502 0 0 1 0 .704l-3.072 3.072c.064.128-.128.128-.256.128z"/><path d="M7.872 9.792c-.32 0-.512-.192-.512-.512V1.088c0-.32.192-.512.512-.512s.512.192.512.512V9.28c0 .32-.192.512-.512.512zm5.12 6.144H2.752a2.568 2.568 0 0 1-2.56-2.56v-2.048c0-.32.192-.512.512-.512s.512.192.512.512v2.048c0 .832.704 1.536 1.536 1.536h10.24c.832 0 1.536-.704 1.536-1.536v-2.048c0-.32.192-.512.512-.512s.512.192.512.512v2.048c0 1.408-1.088 2.56-2.56 2.56z"/></g></g></svg>
