<svg xmlns="http://www.w3.org/2000/svg" width="19" height="18" viewBox="0 0 19 18"><path d="M10.914 17.33c-.875 0-1.616-.657-1.818-1.444l-.875-5.113c0-.328-.336-.525-.673-.656l-5.252-.852C1.42 9.135.88 8.545.813 7.69c-.135-.852.337-1.573 1.212-1.77L15.628.808c.74-.328 1.75 0 2.155.655.337.525.404 1.05.202 1.705L12.732 16.41c-.404.524-1.077.918-1.818.918zm5.253-15.736h-.337L2.227 6.708c-.404.13-.538.525-.404.72 0 .198.202.526.674.657l5.252.852c.74.13 1.413.72 1.48 1.442l.876 5.113c.135.393.404.656.74.656.135 0 .54 0 .674-.395l5.253-13.243c.134-.328 0-.524-.135-.655.067-.13-.27-.263-.47-.263z"/><path d="M8.02 9.593l8.214-8a.54.54 0 0 1 .74 0 .505.505 0 0 1 0 .723L8.76 10.314l-.74-.72z"/></svg>
