<svg fill="#FFF" xmlns="http://www.w3.org/2000/svg" width="16" height="10" viewBox="0 0 16 10"><path  d="M4.267 0c-1.76 0-3.2 1.41-3.2 3.137 0 1.038.52 1.96 1.316 2.533C.977 6.355 0 7.772 0 9.412h1.067c0-1.74 1.426-3.137 3.2-3.137 1.773 0 3.2 1.398 3.2 3.137h1.066c0-1.74 1.427-3.137 3.2-3.137 1.774 0 3.2 1.398 3.2 3.137H16c0-1.64-.977-3.057-2.383-3.742a3.12 3.12 0 0 0 1.316-2.533c0-1.726-1.44-3.137-3.2-3.137-1.76 0-3.2 1.41-3.2 3.137 0 1.038.52 1.96 1.317 2.533A4.262 4.262 0 0 0 8 7.386 4.262 4.262 0 0 0 6.15 5.67a3.12 3.12 0 0 0 1.317-2.533C7.467 1.41 6.027 0 4.267 0zm0 1.046c1.184 0 2.133.93 2.133 2.09C6.4 4.3 5.45 5.23 4.267 5.23c-1.185 0-2.134-.93-2.134-2.092 0-1.16.95-2.09 2.134-2.09zm7.466 0c1.185 0 2.134.93 2.134 2.09 0 1.163-.95 2.093-2.134 2.093S9.6 4.3 9.6 3.136c0-1.16.95-2.09 2.133-2.09z" fill-rule="evenodd"/></svg>
